<?xml version="1.0" encoding="UTF-8"?>
<svg id="Layer_2" data-name="Layer 2" xmlns="http://www.w3.org/2000/svg" xmlns:xlink="http://www.w3.org/1999/xlink" viewBox="0 0 262.48 262.48">
  <defs>
    <style>
      .cls-1 {
        fill: none;
        stroke: #231f20;
        stroke-miterlimit: 10;
        stroke-width: 12px;
      }

      .cls-2 {
        clip-path: url(#clippath);
      }
    </style>
    <clipPath id="clippath">
      <path class="cls-1" d="m256.48,131.24c0,23.7-6.58,45.86-18.02,64.76-21.94,36.25-61.75,60.48-107.22,60.48-19.8,0-38.53-4.6-55.17-12.78C34.56,223.3,6,180.6,6,131.24,6,62.07,62.07,6,131.24,6s125.24,56.07,125.24,125.24Z"/>
    </clipPath>
  </defs>
  <g id="Logo_variations" data-name="Logo variations">
    <g>
      <g class="cls-2">
        <path class="cls-1" d="m238.69,176.78c-1.69-3.56-3.46-7.24-5.73-8.9-1.95-1.43-4.09-1.22-6.13-.57-13.03,4.13-24.37,25.08-37.54,23.79-3.42-.34-6.76-2.2-10.05-4.22-9.02-5.53-17.87-12.29-26.48-20.21-7.52-6.92-15.1-14.87-23.3-15.84-9.98-1.19-19.49,8.07-28.5,17.1-4.05,4.06-8.18,8.24-11.36,14.83-3,6.2-4.99,14.24-6.34,22.58-5.22,32.43-.56,69.6,9.69,96.31,10.25,26.71,25.45,43.75,41.29,52.67,11.5,6.48,23.52,9.01,35.41,7.46,9.31-1.21,18.51-4.89,27.66-8.74,11.2-4.71,22.38-9.68,33.53-14.91,3.82-1.79,7.74-3.71,10.96-8.36,3.33-4.82,5.61-12.14,7.79-19.26,3.75-12.23,7.51-24.49,10.61-37.5,2.12-8.92,4.25-17.11,7.02-25.22,3.21-9.42-2.39-15.95-5.57-22.65-7.65-16.12-15.3-32.25-22.95-48.37Z"/>
        <line class="cls-1" x1="78.3" y1="6" x2="78.3" y2="286.44"/>
      </g>
      <path class="cls-1" d="m256.48,131.24c0,23.7-6.58,45.86-18.02,64.76-21.94,36.25-61.75,60.48-107.22,60.48-19.8,0-38.53-4.6-55.17-12.78C34.56,223.3,6,180.6,6,131.24,6,62.07,62.07,6,131.24,6s125.24,56.07,125.24,125.24Z"/>
    </g>
  </g>
</svg>